<svg xmlns="http://www.w3.org/2000/svg" xmlns:xlink="http://www.w3.org/1999/xlink" version="1.1" x="0px" y="0px" viewBox="0 0 100 100" enable-background="new 0 0 100 100" xml:space="preserve"><path d="M87.483,40.097c-0.278,0.048-0.556,0.099-0.838,0.099c-0.227,0-0.454-0.015-0.684-0.048  c-3.456-0.487-8.139-3.246-10.674-7.216c0.043,0.664,0.13,1.38,0.333,2.2c0.113,1.123,0.373,2.276,0.647,3.497  c0.746,3.317,1.618,7.251-0.818,9.668c-0.763,0.61-0.195,1.236-0.195,1.236c1.025,1.601,2.44,4.475,2.44,8.163  c0,8.022-4.489,13.936-11.91,12.859c-6.812-0.989-9.908-10.775-7.501-15.8c2.2-4.595,9.599-8.67,13.705-7.96  c0,0,0.174-0.326,0.198-0.324c0.583-1.378,0.244-3.296,0.002-5.948c-0.066-0.806-0.155-1.629-0.244-2.452  c-0.22-2.044-0.448-4.158-0.31-5.912c0.007-0.165,0.028-0.316,0.041-0.474l0.001,0c-0.464-0.144-0.944-0.31-1.456-0.515  c-0.471-0.188-0.894-0.383-1.297-0.581c-0.736,0.611-1.596,1.291-2.583,2.065c-1.716,1.346-3.49,2.737-4.941,4.093  c-3.354,2.762-5.321,5.339-6.063,6.464l0.039,0.042l-0.304,0.473c-0.635,0.87-1.429-0.148-1.414-0.227  c-0.76-0.922-1.085-1.907-0.967-2.932c0.333-2.897,4.212-5.43,7.633-7.664c1.674-1.094,3.256-2.126,4.144-3.022l0.102-0.085  c0.106-0.073,0.195-0.142,0.292-0.213c0.001,0,0.001,0,0.002,0c-0.819,0.118-1.599,0.17-2.285,0.17c-0.001,0-0.001,0-0.001,0  c-3.365,0-6.833-0.985-9.05-2.571c-2.456-1.756-2.958-5.377-1.413-10.193c-0.022,0.068-0.033,0.129-0.054,0.196  c-0.713-0.055-1.43-0.096-2.152-0.12l-3.862,7.365l3.834-0.827l0.035-0.007c0.568-0.122,1.127,0.239,1.25,0.806  c0.043,0.201,0.025,0.405-0.041,0.585l-4.457,12.127c-0.122,0.332-0.49,0.502-0.822,0.38c-0.318-0.117-0.487-0.461-0.393-0.781  l3.121-10.634l-4.311,0.93c-0.578,0.125-1.148-0.243-1.273-0.821c-0.051-0.237-0.019-0.473,0.076-0.677l0.011-0.024l3.919-8.43  C24.579,17.59,6.539,32.908,6.539,51.672c0,12.555,8.461,22.443,21.994,27.221c0,0.001-0.001,0.002-0.001,0.002  c0.499-1.264,0.924-2.13,0.971-2.224c0.265-0.53,0.907-0.742,1.437-0.482c0.529,0.263,0.745,0.907,0.482,1.437  c-0.03,0.059-2.926,5.939-2.442,9.657c0.22,1.695,3.002,3.114,5.948,3.093c1.347-0.022,4.381-0.413,5.091-3.381  c-0.056-1.828,0.277-3.745,0.664-5.315c0.548-3.677,1.029-3.818,1.597-3.918c0.253-0.112,0.548-0.127,0.825-0.018  c0.55,0.217,0.821,0.84,0.603,1.39c-0.01,0.026-0.491,1.267-0.916,2.951c-0.152,1.03-0.326,2.443-0.515,4.389  c-0.02,0.208-0.076,0.395-0.112,0.594c0.02,0.442,0.065,0.874,0.15,1.282c0.349,1.673,3.237,2.906,6.168,2.631  c1.444-0.134,4.812-0.841,4.887-4.494c0.112-5.426-0.138-6.825-0.213-7.117c-0.025-0.042-0.027-0.094-0.046-0.139  c-0.034-0.079-0.066-0.155-0.08-0.241c-0.012-0.071-0.006-0.14-0.003-0.214c0.002-0.058-0.015-0.113-0.003-0.171  c0.007-0.033,0.028-0.058,0.038-0.09c0.008-0.026,0.001-0.052,0.011-0.078c0.016-0.042,0.048-0.07,0.068-0.109  c0.034-0.064,0.067-0.123,0.112-0.178c0.044-0.054,0.092-0.1,0.146-0.144c0.053-0.044,0.105-0.084,0.166-0.117  c0.059-0.032,0.119-0.055,0.183-0.076c0.067-0.022,0.132-0.039,0.204-0.048c0.069-0.008,0.137-0.005,0.208,0.001  c0.043,0.004,0.085-0.009,0.128,0.001c0.216,0.044,0.419,0.091,0.613,0.324c0.014,0.016,0.029,0.031,0.043,0.05  c0.013,0.017,0.025,0.04,0.038,0.059c0.023,0.035,0.046,0.07,0.068,0.113c0.419,0.767,0.796,2.725,1.167,8.018  c0.206,2.93,2.482,3.715,4.357,3.858c3.147,0.244,6.486-1.269,6.789-2.613c0.668-2.96-1.811-8.145-2.823-9.893  c-0.296-0.512-0.122-1.168,0.39-1.464c0.511-0.297,1.166-0.123,1.464,0.389c0.059,0.102,0.593,1.036,1.207,2.384  c13.699-4.739,22.278-14.678,22.278-27.321C89.877,47.615,89.032,43.718,87.483,40.097z M31.834,70.554  c-7.421,1.078-11.911-4.837-11.911-12.859c0-5.778,3.479-9.573,3.479-9.573c2.599-3.914,13.22,0.966,15.933,6.631  C41.742,59.779,38.646,69.565,31.834,70.554z"></path><path fill="#000000" d="M37.715,58.768"></path><path d="M75.302,18.459c3.864,1.545,4.832,3.906,3.238,7.894c-1.127,2.818-2.057,3.723-3.826,3.723  c-0.963,0-2.208-0.302-3.698-0.898c-5.129-2.051-4.717-4.197-3.502-7.235c1.114-2.784,2.696-4.137,4.838-4.137  C73.226,17.807,74.219,18.026,75.302,18.459z"></path><path d="M73.613,40.397c-0.066-0.811-0.156-1.646-0.247-2.482c-0.213-1.979-0.434-4.026-0.305-5.672  c0.003-0.073,0.013-0.137,0.018-0.208c0,0,0,0,0,0c0.247,0.048,0.495,0.097,0.728,0.124c-0.003,0.943,0.112,2.014,0.41,3.211  c0.104,1.109,0.373,2.305,0.658,3.572c1.053,4.682,1.477,7.948-2.079,9.389c0.128-0.236,0.253-0.505,0.35-0.801  C73.767,46.097,73.92,43.762,73.613,40.397z"></path><path d="M67.585,29.836c-0.711,0.58-1.456,1.166-2.126,1.691c-1.74,1.365-3.539,2.775-5.001,4.144  c-4.99,3.61-5.568,6.492-6.06,6.394c-0.492-0.097-0.34-0.884-0.289-1.337c0.258-2.231,3.994-4.672,6.996-6.632  c1.712-1.117,3.33-2.175,4.329-3.165c0.71-0.494,1.249-0.97,1.672-1.427C66.969,29.404,67.264,29.629,67.585,29.836z"></path><path d="M54.156,17.641c1.707-5.323,5.718-10.547,8.102-10.547c2.523,0.011,5.775,4.594,8.06,8.877h0  c-2.063,0.664-3.685,2.403-4.794,5.177c-0.939,2.348-1.303,4.417-0.367,6.219c-0.926,0.178-1.816,0.24-2.578,0.24h-0.001  c-2.897-0.001-5.96-0.853-7.804-2.171C53.186,24.3,52.955,21.386,54.156,17.641z"></path><path d="M86.26,38.027c-2.935-0.414-7.077-2.865-9.227-6.298c1.844-0.869,2.771-2.766,3.496-4.58  c1.015-2.539,1.153-4.705,0.421-6.485c2.575-0.888,6.308-1.969,9.25-1.969c1.534,0,2.669,0.307,3.285,0.888  c1.515,1.43,1.164,6.916-0.753,11.741C90.984,35.727,88.519,38.34,86.26,38.027z"></path></svg>