<svg xmlns="http://www.w3.org/2000/svg" xmlns:xlink="http://www.w3.org/1999/xlink" version="1.1" x="0px" y="0px" viewBox="0 0 100 100" enable-background="new 0 0 100 100" xml:space="preserve"><g><path d="M48.965,68.553c0.376,0.502,0.838,0.829,1.407,0.846l0.12,0.002c1.606,0,2.337-1.087,2.675-3.042   c-0.27-0.121-0.543-0.203-0.827-0.203C50.895,66.156,49.589,67.687,48.965,68.553z"></path><path d="M94.498,39.866c-0.315-0.985-1.132-1.751-2.241-2.1l-22.178-6.978c-1.149-0.362-2.762-1.545-3.452-2.532L53.311,9.196   c-0.669-0.958-1.649-1.507-2.689-1.507c-1.03,0-2.005,0.541-2.677,1.483L34.456,28.108c-0.699,0.982-2.323,2.149-3.476,2.5   L8.738,37.382c-1.112,0.339-1.936,1.097-2.26,2.079c-0.325,0.983-0.114,2.082,0.579,3.017l13.841,18.681   c0.717,0.968,1.327,2.874,1.305,4.078l-0.432,23.246c-0.018,0.978,0.308,1.858,0.917,2.479c0.835,0.851,2.136,1.123,3.409,0.695   l22.044-7.392c1.083-0.363,3.201-0.354,4.281,0.02l21.975,7.594c0.414,0.143,0.831,0.216,1.238,0.216   c0.842,0,1.619-0.315,2.187-0.889c0.609-0.615,0.94-1.489,0.931-2.461l-0.217-23.25c-0.012-1.205,0.615-3.104,1.342-4.065   l14.012-18.553C94.592,41.949,94.813,40.852,94.498,39.866z M36.079,52.574c-1.473-0.007-2.662-1.223-2.653-3.103   c0.004-0.841,0.255-1.537,0.654-2.06c-1.174-0.301-1.614-1.284-1.614-1.284c0.95,0.685,2.655,0.46,2.655,0.46   s0.002,0.002,0.003,0.002c0.306-0.127,0.636-0.198,0.984-0.196c1.473,0.007,2.662,1.223,2.653,3.103   C38.752,51.375,37.552,52.581,36.079,52.574z M57.946,61.319c-0.791,1.33-1.769,2.214-2.909,2.651   c-0.104,2.704-0.479,7.065-4.545,7.065l-0.17-0.002c-3.687-0.113-4.332-5.752-4.444-7.577c-1.456-0.795-2.206-2.164-2.242-2.233   c-0.21-0.399-0.058-0.893,0.341-1.104c0.397-0.21,0.891-0.059,1.102,0.339C45.1,60.496,45.783,61.701,47,62.18   c0.391,0.116,0.776,0.18,1.145,0.183c0.042-0.002,0.085-0.005,0.128-0.009c0.123-0.004,0.229-0.021,0.339-0.035   c0.439-0.086,0.895-0.257,1.367-0.526c0.061-0.035,0.126-0.057,0.192-0.075c0.001,0,0.002-0.001,0.003-0.001   c0.109-0.029,0.22-0.031,0.33-0.014c0.005,0.001,0.009-0.001,0.014,0c0.006,0.001,0.011,0.006,0.017,0.007   c0.104,0.02,0.203,0.056,0.294,0.116c0.003,0.002,0.007,0.003,0.011,0.006c0.008,0.005,0.017,0.007,0.024,0.013   c0.009,0.006,0.816,0.573,1.872,0.752c0.213,0.024,0.447,0.042,0.699,0.053c0.182-0.005,0.367-0.021,0.554-0.06   c0.986-0.205,1.844-0.913,2.552-2.104c0.231-0.387,0.731-0.514,1.12-0.285C58.049,60.429,58.176,60.931,57.946,61.319z    M67.664,47.566c0.394,0.527,0.639,1.225,0.635,2.066c-0.009,1.88-1.209,3.085-2.682,3.078c-1.473-0.007-2.662-1.223-2.653-3.103   c0.009-1.88,1.208-3.085,2.682-3.078c0.348,0.002,0.678,0.076,0.982,0.205c0,0,0.003-0.002,0.003-0.002s1.703,0.241,2.659-0.435   C69.29,46.297,68.841,47.276,67.664,47.566z"></path><path d="M53.35,64.286c-0.109,0-0.207-0.022-0.314-0.028c-0.202-0.014-0.403-0.029-0.605-0.055   c-0.01-0.002-0.019-0.003-0.029-0.005c-0.797-0.102-1.571-0.3-2.127-0.674c-0.356,0.176-0.892,0.341-1.514,0.419   c-0.404,0.065-0.803,0.087-1.196,0.046c0.124,1.144,0.408,2.664,0.95,3.802c0.775-1.003,2.177-2.451,3.825-2.451   c0.323,0,0.638,0.059,0.946,0.169c0.042-0.384,0.075-0.79,0.099-1.225c-0.002,0-0.004,0-0.006,0   C53.369,64.283,53.359,64.286,53.35,64.286z"></path></g></svg>