<svg xmlns="http://www.w3.org/2000/svg" width="46" height="42" viewBox="0 0 46 42"><defs><style>.cls-1{fill:#fff;fill-rule:evenodd}</style></defs><path id="login" class="cls-1" d="M12210.5 81.176l.5 1.929-6.5 1.722-.5-1.927zm-13 3.657l-6.5-1.723.6-1.929 6.4 1.723zm1.5 6.856h4v2h-4v-2zm22.8-24.437l-.2-.528h-3.6a20.915 20.915 0 0 0-34 0h-3.6l-.2.57a21.855 21.855 0 0 0-2.2 9.722 11.486 11.486 0 0 0 .1 1.793l.1.9h1.8a21.012 21.012 0 0 0 42 0h1.8l.1-.9a10.769 10.769 0 0 0 .1-1.734 22.28 22.28 0 0 0-2.2-9.823zM12181 82.33a15.982 15.982 0 0 1 .7-2.84.248.248 0 0 0 .2-.26 1.206 1.206 0 0 1-.2.537 12.3 12.3 0 0 0-.7 2.7l-.2 1.064v.169zm20 15.69a19 19 0 0 1-18.4-14.354s0-.039.1-.04a15.342 15.342 0 0 0 5.7-1.417c.4-.2.8-.418 1.2-.648a12.97 12.97 0 0 0 2.6-1.663.474.474 0 0 1 .3-.193h1a.37.37 0 0 0 .1 0h26.4a19.215 19.215 0 0 1-19 18.315zm-13.2-23.4a.46.46 0 0 0 .2.27l1 1.243.7-.7-.7.7-2.7 2.987 3.4-2.192.9 1.13c.1.083.2.145.3.221a13.765 13.765 0 0 1-7.7 3.29 13.528 13.528 0 0 1 4.6-6.948zm9-1.769a1.767 1.767 0 0 1-.2 2.581l-1.9 1.568a1.793 1.793 0 0 1-2.5-.226l-2.7-3.168a1.635 1.635 0 0 1-.4-1.337 1.9 1.9 0 0 1 .6-1.244l1.9-1.568a1.715 1.715 0 0 1 1.2-.425 1.98 1.98 0 0 1 1.4.651zm25.2 4.857h-24.7l.6-.6a3.912 3.912 0 0 0 1.3-3.181v-.088a3.053 3.053 0 0 0-.7-2c0-.085-.1-.186-.1-.267l-1.1-1.279 2.6-2.834-3.2 2.077-1-1.14a.45.45 0 0 1-.2-.239 3.992 3.992 0 0 0-1.9-1.024 2.772 2.772 0 0 0-.8-.1 3.966 3.966 0 0 0-2.5.893l-.9.78-.9.788a3.827 3.827 0 0 0-1.4 2.6c0 .089-.1.175-.1.264v.042c0 .055.1.11.1.164v.036a15.651 15.651 0 0 0-4.5 5.152 3.7 3.7 0 0 1-.4.907 9.563 9.563 0 0 1 .4-.951h-2.6V77a22.732 22.732 0 0 1 1.7-8.277h7.7l.9-.787a3.968 3.968 0 0 1 2.5-.9 2.76 2.76 0 0 1 .8.108 1.3 1.3 0 0 1 .5-.422h-7.6a18.978 18.978 0 0 1 29 0h-10.8a15.068 15.068 0 0 0 .6-2.641l.2-1.353h-1.2a15.269 15.269 0 0 0-9.4 3.293c-.3.211-.5.349-.8.574-.2.14-.3.34-.5.484a4.041 4.041 0 0 1 1.9 1.052 13.29 13.29 0 0 1 7.6-3.278v.02a13.512 13.512 0 0 1-4.6 6.94v.007a3.01 3.01 0 0 1 .7 1.977v.047a14.067 14.067 0 0 0 4.5-5 .156.156 0 0 1 .1-.128h16.5A22.732 22.732 0 0 1 12222 77v.711zm-17.6-10.419a3.347 3.347 0 0 1-.5 1.038c.2-.339.3-.686.5-1.038z" transform="translate(-12178 -58)"/></svg>