<svg xmlns="http://www.w3.org/2000/svg" width="38" height="30.406" viewBox="0 0 38 30.406"><defs><style>.cls-1{fill:#bfbfbf;fill-rule:evenodd}</style></defs><path id="dowoz" class="cls-1" d="M12207.9 127.372h9a1.521 1.521 0 0 0 0-3.041h-9a1.521 1.521 0 0 0 0 3.041zm29.1 9.505c2.4-.481 3.9.158 3.9-.557 0-1.09-2.8-3.032-6.1-2.826a.65.65 0 0 0 .2-.294c0-.706-.2-6.42-3-10.769-.9 0-3.8-1.186-4.4-2.812a4.777 4.777 0 0 0 3.4 1.176c2 0 2 0 2-2.4s-.1-2.4-2-2.4c-1.8 0-3.2.689-3.7 1.642-1 .237-4.3 1.088-4.7 1.229a.994.994 0 0 0 .7 1.857 11.6 11.6 0 0 0 2.8-1.576c1.5 2.744 3.4 10.635 2.7 11.779-1.9 3.717-4.1 4.676-8.1 4.676-4.5 0-5.2-.247-3.4-3.944a1.468 1.468 0 0 0-1.4-2.267h-8.8a1.581 1.581 0 0 0-1.1.445c-1.3 1.285-3.1 3.87-3.1 5.555 0 1.187 1.1 2.215 2.8 2.924a4.97 4.97 0 0 0-.2 6.13 4.363 4.363 0 0 0 2.8 1.852 4.767 4.767 0 0 0 5.7-4.7 6.671 6.671 0 0 0-.2-1.444c2.3.221 4.7.393 6.9.393h4.7c.7 0 1.8-.892 3.3-2.065-.3 1.684.2 3.094.6 3.094 1.2 0 1.2-1.079 2.8-2.4a4.6 4.6 0 0 0-.6 3.289 4.745 4.745 0 1 0 5.5-5.587zm-25.4 4.727v.223a2.353 2.353 0 0 1-2.3 2.176 2.4 2.4 0 0 1-2.4-2.251v-.6a.136.136 0 0 1 .1-.146v-.27a.157.157 0 0 0 .1-.164c0-.074.1-.146.1-.215a.154.154 0 0 0 .1-.161c.1-.063.1-.121.2-.179 0-.049.1-.1.1-.145.1-.066.1-.124.2-.181s.2-.114.3-.165a.311.311 0 0 1 .2-.11.358.358 0 0 1 .2-.072c0-.017 0-.038.1-.052a2.36 2.36 0 0 1 .7-.1 2.712 2.712 0 0 1 1.5.556v.049c.1.077.2.159.3.247 0 .04 0 .078.1.12 0 .093.1.191.1.293a.128.128 0 0 1 .1.138.456.456 0 0 1 .1.345c0 .046.1.089.1.136v.524zm24.6 2.392V144a2.48 2.48 0 0 1-2.4-2.1v-.421a2.3 2.3 0 0 1 .7-1.582 1.039 1.039 0 0 1 .4-.309v-.013a2.779 2.779 0 0 1 .5-.24c.1-.014.1-.028.1-.039a2.485 2.485 0 0 1 .7-.092 2.349 2.349 0 0 1 2.3 2.53 2.447 2.447 0 0 1-2.3 2.266z" transform="translate(-12202.9 -116)"/></svg>